<svg width="162" height="95" viewBox="0 0 162 95" fill="none" xmlns="http://www.w3.org/2000/svg">
<path d="M143.093 0H18.0577C13.2357 0.0329722 8.63214 1.16369 5.25207 3.14532C1.87199 5.12696 -0.0101012 7.79853 0.0166864 10.5768V19.9325H8.19441V10.6057C8.19409 9.09047 9.22843 7.63601 11.074 6.55654C12.9195 5.47707 15.428 4.85921 18.0577 4.83648H143.093C145.725 4.85671 148.238 5.47347 150.087 6.55321C151.937 7.63294 152.973 9.08884 152.973 10.6057V89.9703H8.1777V74.8071H0V94.7782H161.117V10.6153C161.162 7.83199 159.29 5.15199 155.911 3.16231C152.533 1.17263 147.924 0.0355011 143.093 0Z" fill="#AAAAAA"/>
</svg>
